<?xml version="1.0" encoding="UTF-8"?><svg id="b" xmlns="http://www.w3.org/2000/svg" width="240" height="240" viewBox="0 0 240 240"><defs><style>.d{fill:#bf9209;}.e{fill:#fff;}.f{fill:#100a73;}</style></defs><g id="c"><path class="d" d="M168.02,240c39.76,0,71.98-32.25,71.98-71.96v-95.95C240,32.26,207.78,0,168.02,0h-96.03C32.24,0,0,32.26,0,72.09v95.95c0,39.71,32.24,71.96,71.99,71.96h96.03Z"/><path class="f" d="M164.84,233.46c37.3,0,67.56-30.26,67.56-67.77v-90.35c0-37.52-30.26-67.89-67.56-67.89h-90.02C37.55,7.45,7.3,37.82,7.3,75.34v90.35c0,37.51,30.25,67.77,67.52,67.77h90.02Z"/><path class="e" d="M79.66,66.93s-16.09-.02-16.04,0c28.86,9.76,49.34,34.17,56.15,57.94H31.79v-38.86h19.72v19.1h34.58c-11.09-12.73-34.71-23.9-54.3-23.27v-34.61h47.87v19.7ZM175.96,66.89c-26.77,9.31-47.87,30.85-56.39,57.98h63.03v-19.76h-29.27c8.7-10.48,25.76-19.66,34.3-20.81v40.57h20V41.59h-20v5.65h-27.85v19.7l16.18-.04ZM101.59,42.13h36.28v46.34c6.41-6.96,13.02-11.93,19.43-15.77V23.09h-75.15v49.61c7.18,4.27,13.67,9.55,19.41,15.66l.04-46.23Z"/><path class="d" d="M31.8,128.21h77.36c5.5,1.08,8.9,6.53,8.9,12.29v77.08h-8.9v-62.07s1.11-8.24-7.93-8.24H31.8v-7.83h75.65c2.18,0,2.18-3.38,0-3.38H31.8v-7.86ZM31.8,158.55h63.28c2.18,0,2.18,3.39,0,3.39H31.8v7.92h57.07c9.03,0,7.92,8.31,7.92,8.31v39.42h8.88v-56.28c0-6.88,1.08-10.57-7.81-10.57H31.8v7.81ZM31.8,181.03h50.82c2.29,0,2.35,3.4,0,3.4H31.8v7.91h44.75c9.07,0,7.92,8.31,7.92,8.31v16.94h8.91v-33.79c0-6.74,1.03-10.58-7.83-10.58H31.8v7.81ZM207.63,128.21h-77.34c-5.52,1.09-8.9,6.54-8.9,12.29v77.08h8.9v-62.07s-1.12-8.24,7.9-8.24h69.44v-7.83h-75.64c-2.2,0-2.2-3.38,0-3.38h75.64v-7.86ZM207.63,150.73h-66.02c-8.87,0-7.85,3.69-7.85,10.57v56.28h8.91v-39.41s-1.14-8.31,7.92-8.31h57.05v-7.92h-63.28c-2.19,0-2.19-3.4,0-3.4h63.28v-7.81ZM207.63,173.21h-53.73c-8.84,0-7.83,3.84-7.83,10.58v33.79h8.89v-16.94s-1.12-8.31,7.93-8.31h44.75v-7.91h-50.84c-2.33,0-2.24-3.4,0-3.4h50.84v-7.81Z"/></g></svg>